<svg xmlns="http://www.w3.org/2000/svg" xmlns:xlink="http://www.w3.org/1999/xlink" viewBox="0 0 170.9 341.22"><defs><style>.cls-1{fill:url(#linear-gradient);}.cls-2,.cls-4,.cls-5{fill:#fff;}.cls-2,.cls-5{stroke:#fff;}.cls-15,.cls-2,.cls-5{stroke-miterlimit:10;}.cls-2{stroke-width:10px;}.cls-3{fill:url(#linear-gradient-2);}.cls-5{stroke-width:6px;}.cls-6{fill:url(#linear-gradient-3);}.cls-7{fill:url(#linear-gradient-4);}.cls-8{fill:url(#linear-gradient-5);}.cls-9{fill:url(#linear-gradient-6);}.cls-10{fill:url(#linear-gradient-7);}.cls-11{fill:url(#linear-gradient-8);}.cls-12{fill:url(#linear-gradient-9);}.cls-13{fill:url(#linear-gradient-10);}.cls-14{fill:url(#linear-gradient-11);}.cls-15{fill:none;stroke:#48b749;stroke-width:13px;}</style><linearGradient id="linear-gradient" y1="170.61" x2="170.9" y2="170.61" gradientUnits="userSpaceOnUse"><stop offset="0" stop-color="#c0d955"/><stop offset="0.45" stop-color="#6cb455"/><stop offset="1" stop-color="#008655"/></linearGradient><linearGradient id="linear-gradient-2" x1="38.13" y1="66.74" x2="49.59" y2="66.74" xlink:href="#linear-gradient"/><linearGradient id="linear-gradient-3" x1="53.09" y1="66.65" x2="123.09" y2="66.65" xlink:href="#linear-gradient"/><linearGradient id="linear-gradient-4" x1="38.24" y1="109.89" x2="49.7" y2="109.89" xlink:href="#linear-gradient"/><linearGradient id="linear-gradient-5" x1="53.09" y1="109.65" x2="123.09" y2="109.65" xlink:href="#linear-gradient"/><linearGradient id="linear-gradient-6" x1="38.24" y1="87.89" x2="49.7" y2="87.89" xlink:href="#linear-gradient"/><linearGradient id="linear-gradient-7" x1="53.09" y1="87.65" x2="123.09" y2="87.65" xlink:href="#linear-gradient"/><linearGradient id="linear-gradient-8" x1="38.24" y1="129.89" x2="49.7" y2="129.89" xlink:href="#linear-gradient"/><linearGradient id="linear-gradient-9" x1="53.09" y1="129.65" x2="123.09" y2="129.65" xlink:href="#linear-gradient"/><linearGradient id="linear-gradient-10" x1="38.24" y1="150.89" x2="49.7" y2="150.89" xlink:href="#linear-gradient"/><linearGradient id="linear-gradient-11" x1="53.09" y1="150.65" x2="123.09" y2="150.65" xlink:href="#linear-gradient"/></defs><g id="Layer_2" data-name="Layer 2"><g id="Layer_1-2" data-name="Layer 1"><path class="cls-1" d="M170.9,10V341.22l-40.81-19.57-45,19-45-21L0,341.22V10A10,10,0,0,1,10,0H160.9A10,10,0,0,1,170.9,10Z"/><rect class="cls-2" x="29.59" y="43.65" width="106.5" height="124" rx="6.98"/><circle class="cls-3" cx="43.86" cy="66.74" r="5.73"/><circle class="cls-4" cx="46.86" cy="109.1" r="5.73"/><circle class="cls-4" cx="46.86" cy="142.28" r="5.73"/><line class="cls-5" x1="58.02" y1="109.41" x2="123.17" y2="109.41"/><line class="cls-5" x1="58.02" y1="142.98" x2="123.17" y2="142.98"/><rect class="cls-6" x="53.09" y="63.65" width="70" height="6"/><circle class="cls-7" cx="43.97" cy="109.89" r="5.73"/><rect class="cls-8" x="53.09" y="106.65" width="70" height="6"/><circle class="cls-9" cx="43.97" cy="87.89" r="5.73"/><rect class="cls-10" x="53.09" y="84.65" width="70" height="6"/><circle class="cls-11" cx="43.97" cy="129.89" r="5.73"/><rect class="cls-12" x="53.09" y="126.65" width="70" height="6"/><circle class="cls-13" cx="43.97" cy="150.89" r="5.73"/><rect class="cls-14" x="53.09" y="147.65" width="70" height="6"/><polyline class="cls-15" points="164.89 113.4 114.8 171.31 81.41 134.27"/></g></g></svg>